<svg id="wave" style="transform:rotate(180deg); transition: 0.3s" viewBox="0 0 1440 490" version="1.1" xmlns="http://www.w3.org/2000/svg"><defs><linearGradient id="sw-gradient-0" x1="0" x2="0" y1="1" y2="0"><stop stop-color="rgba(255, 255, 255, 1)" offset="0%"></stop><stop stop-color="rgba(0, 0, 0, 1)" offset="100%"></stop></linearGradient></defs><path style="transform:translate(0, 0px); opacity:1" fill="url(#sw-gradient-0)" d="M0,441L288,196L576,0L864,98L1152,147L1440,294L1728,98L2016,245L2304,441L2592,49L2880,0L3168,196L3456,147L3744,392L4032,196L4320,294L4608,392L4896,49L5184,294L5472,245L5760,245L6048,49L6336,196L6624,392L6912,392L6912,490L6624,490L6336,490L6048,490L5760,490L5472,490L5184,490L4896,490L4608,490L4320,490L4032,490L3744,490L3456,490L3168,490L2880,490L2592,490L2304,490L2016,490L1728,490L1440,490L1152,490L864,490L576,490L288,490L0,490Z"></path><defs><linearGradient id="sw-gradient-1" x1="0" x2="0" y1="1" y2="0"><stop stop-color="rgba(255, 255, 255, 1)" offset="0%"></stop><stop stop-color="rgba(0, 0, 0, 1)" offset="100%"></stop></linearGradient></defs><path style="transform:translate(0, 50px); opacity:0.9" fill="url(#sw-gradient-1)" d="M0,294L288,392L576,392L864,441L1152,196L1440,98L1728,392L2016,98L2304,196L2592,49L2880,294L3168,98L3456,343L3744,196L4032,147L4320,441L4608,343L4896,49L5184,441L5472,343L5760,441L6048,441L6336,196L6624,98L6912,0L6912,490L6624,490L6336,490L6048,490L5760,490L5472,490L5184,490L4896,490L4608,490L4320,490L4032,490L3744,490L3456,490L3168,490L2880,490L2592,490L2304,490L2016,490L1728,490L1440,490L1152,490L864,490L576,490L288,490L0,490Z"></path><defs><linearGradient id="sw-gradient-2" x1="0" x2="0" y1="1" y2="0"><stop stop-color="rgba(0, 0, 0, 1)" offset="0%"></stop><stop stop-color="rgba(255, 255, 255, 1)" offset="100%"></stop></linearGradient></defs><path style="transform:translate(0, 100px); opacity:0.8" fill="url(#sw-gradient-2)" d="M0,0L288,0L576,392L864,98L1152,343L1440,196L1728,343L2016,343L2304,245L2592,196L2880,147L3168,343L3456,196L3744,49L4032,49L4320,147L4608,49L4896,147L5184,49L5472,392L5760,441L6048,98L6336,441L6624,392L6912,294L6912,490L6624,490L6336,490L6048,490L5760,490L5472,490L5184,490L4896,490L4608,490L4320,490L4032,490L3744,490L3456,490L3168,490L2880,490L2592,490L2304,490L2016,490L1728,490L1440,490L1152,490L864,490L576,490L288,490L0,490Z"></path><defs><linearGradient id="sw-gradient-3" x1="0" x2="0" y1="1" y2="0"><stop stop-color="rgba(0, 0, 0, 1)" offset="0%"></stop><stop stop-color="rgba(0, 0, 0, 1)" offset="100%"></stop></linearGradient></defs><path style="transform:translate(0, 150px); opacity:0.7" fill="url(#sw-gradient-3)" d="M0,196L288,441L576,294L864,147L1152,196L1440,343L1728,343L2016,98L2304,147L2592,392L2880,147L3168,294L3456,0L3744,245L4032,49L4320,196L4608,196L4896,245L5184,0L5472,147L5760,294L6048,98L6336,147L6624,0L6912,0L6912,490L6624,490L6336,490L6048,490L5760,490L5472,490L5184,490L4896,490L4608,490L4320,490L4032,490L3744,490L3456,490L3168,490L2880,490L2592,490L2304,490L2016,490L1728,490L1440,490L1152,490L864,490L576,490L288,490L0,490Z"></path></svg>