<!--?xml version="1.0" standalone="no"?-->              <svg id="sw-js-blob-svg" viewBox="0 0 100 100" xmlns="http://www.w3.org/2000/svg">                    <defs>                         <linearGradient id="sw-gradient" x1="0" x2="1" y1="1" y2="0">                            <stop id="stop1" stop-color="rgba(0, 136.059, 236.7, 1)" offset="0%"></stop>                            <stop id="stop2" stop-color="rgba(0, 4.694, 34.066, 1)" offset="100%"></stop>                        </linearGradient>                    </defs>                <path fill="url(#sw-gradient)" d="M20.5,-35.7C26.8,-31.8,32.3,-26.8,36.4,-20.7C40.5,-14.5,43.3,-7.3,42.5,-0.5C41.6,6.3,37.2,12.6,33.3,19.3C29.5,25.9,26.3,33,20.9,36.6C15.4,40.1,7.7,40.2,-0.3,40.7C-8.3,41.2,-16.5,42.1,-22.9,39C-29.2,35.9,-33.6,28.9,-37,21.8C-40.4,14.6,-42.8,7.3,-42.7,0.1C-42.6,-7.2,-39.9,-14.3,-36.4,-21.3C-32.9,-28.2,-28.5,-35,-22.3,-38.9C-16.1,-42.9,-8,-44,-0.5,-43.2C7.1,-42.4,14.2,-39.6,20.5,-35.7Z" width="100%" height="100%" transform="translate(50 50)" stroke-width="0" style="transition: 0.3s;"></path>              </svg>